<svg aria-hidden="true" style="position: absolute; width: 0; height: 0; overflow: hidden;" version="1.1" xmlns="http://www.w3.org/2000/svg" xmlns:xlink="http://www.w3.org/1999/xlink">
<defs>
<symbol id="icon-instagram" viewBox="0 0 32 32">
<path d="M16 0.665c4.269 0 4.805 0.017 6.481 0.093 1.673 0.074 2.817 0.333 3.816 0.712 1.087 0.405 2.015 1.007 2.785 1.769l-0.001-0.001c0.778 0.744 1.395 1.651 1.796 2.666l0.018 0.051c0.388 0.974 0.654 2.090 0.73 3.722 0.076 1.635 0.094 2.157 0.094 6.322s-0.018 4.687-0.093 6.323c-0.076 1.632-0.343 2.748-0.731 3.722-0.419 1.066-1.036 1.972-1.811 2.714l-0.003 0.003c-0.769 0.762-1.697 1.364-2.731 1.751l-0.053 0.018c-0.999 0.379-2.143 0.638-3.816 0.712-1.675 0.074-2.211 0.093-6.481 0.093s-4.804-0.017-6.481-0.093c-1.673-0.074-2.816-0.333-3.815-0.712-1.087-0.405-2.016-1.006-2.786-1.769l0.001 0.001c-0.778-0.744-1.395-1.651-1.796-2.666l-0.018-0.051c-0.388-0.974-0.653-2.089-0.73-3.721-0.075-1.636-0.094-2.157-0.094-6.324 0-4.164 0.019-4.686 0.094-6.322 0.077-1.632 0.342-2.748 0.73-3.722 0.42-1.066 1.036-1.972 1.812-2.714l0.003-0.003c0.769-0.762 1.697-1.364 2.731-1.751l0.053-0.018c0.999-0.379 2.142-0.638 3.815-0.712 1.676-0.074 2.211-0.093 6.479-0.093zM16 3.428c-4.198 0-4.696 0.014-6.351 0.089-1.533 0.068-2.366 0.319-2.919 0.526-0.707 0.258-1.31 0.65-1.806 1.149l-0 0c-0.508 0.481-0.909 1.070-1.166 1.731l-0.011 0.032c-0.214 0.541-0.47 1.352-0.541 2.849-0.076 1.617-0.093 2.101-0.093 6.196 0 4.094 0.017 4.579 0.093 6.197 0.069 1.495 0.325 2.307 0.542 2.848 0.268 0.692 0.668 1.28 1.174 1.759l0.002 0.002c0.496 0.498 1.1 0.888 1.773 1.135l0.034 0.011c0.553 0.212 1.386 0.46 2.919 0.527 1.658 0.074 2.155 0.090 6.351 0.090 4.198 0 4.696-0.015 6.353-0.090 1.532-0.067 2.364-0.318 2.918-0.526 0.707-0.258 1.31-0.649 1.806-1.147l0-0c0.508-0.481 0.909-1.071 1.166-1.732l0.011-0.032c0.214-0.54 0.471-1.352 0.541-2.847 0.076-1.618 0.093-2.103 0.093-6.197s-0.017-4.579-0.093-6.197c-0.069-1.496-0.325-2.307-0.541-2.848-0.268-0.693-0.669-1.282-1.175-1.761l-0.002-0.002c-0.496-0.498-1.1-0.889-1.773-1.136l-0.034-0.011c-0.553-0.211-1.386-0.459-2.918-0.526-1.659-0.075-2.155-0.090-6.353-0.090zM16 8.124c4.457 0 8.072 3.525 8.072 7.874s-3.613 7.874-8.072 7.874c-4.457 0-8.072-3.525-8.072-7.874s3.613-7.874 8.072-7.874zM16 21.11c2.893 0 5.241-2.29 5.241-5.112 0-2.823-2.345-5.112-5.241-5.112-2.893 0-5.241 2.289-5.241 5.112 0 2.822 2.345 5.112 5.241 5.112zM26.278 7.813c0 1.016-0.844 1.842-1.886 1.842-1.043 0-1.887-0.824-1.887-1.842 0-1.015 0.844-1.841 1.887-1.841s1.886 0.824 1.886 1.841z"></path>
</symbol>
<symbol id="icon-twitter" viewBox="3 4 20 18">
<path d="M18.244 2.25h3.308l-7.227 8.26 8.502 11.24H16.17l-5.214-6.817L4.99 21.75H1.68l7.73-8.835L1.254 2.25H8.08l4.713 6.231zm-1.161 17.52h1.833L7.084 4.126H5.117z"></path>
</symbol>

<symbol id="icon-facebook" viewBox="0 0 33 32">
<path d="M1.827 31.998c-1.011 0-1.827-0.79-1.827-1.767v-28.467c0-0.975 0.818-1.767 1.827-1.767h29.449c1.011 0 1.827 0.791 1.827 1.767v28.467c0 0.977-0.818 1.767-1.826 1.767h-8.437v-12.392h4.303l0.644-4.83h-4.948v-3.083c0-1.398 0.403-2.35 2.476-2.35l2.645-0.002v-4.32c-0.457-0.058-2.027-0.191-3.854-0.191-3.815 0-6.425 2.251-6.425 6.385v3.562h-4.314v4.829h4.314v12.392h-15.854z"></path>
</symbol>
<symbol id="icon-arrow" viewBox="0 0 124 32">
<path d="M121.416 17.416c0.363-0.362 0.588-0.863 0.588-1.416s-0.225-1.054-0.588-1.416l-12.728-12.728c-0.362-0.362-0.862-0.585-1.414-0.585-1.105 0-2.001 0.896-2.001 2.001 0 0.553 0.224 1.054 0.587 1.416l11.312 11.312-11.312 11.312c-0.363 0.362-0.587 0.863-0.587 1.416 0 1.105 0.896 2.001 2.001 2.001 0.552 0 1.052-0.224 1.414-0.585l12.728-12.728zM0 18h120v-4h-120v4z"></path>
</symbol>
<symbol id="icon-menu" viewBox="0 0 53 32">
<path stroke-linejoin="miter" stroke-linecap="round" stroke-miterlimit="4" stroke-width="1.5238" d="M0.762 16h51.81M0.762 0.762h51.81M0.762 31.238h51.81"></path>
</symbol>
<symbol id="icon-close" viewBox="0 0 32 32">
<path d="M19.437 15.987l11.853-11.852c0.426-0.436 0.689-1.033 0.689-1.692 0-1.338-1.084-2.422-2.422-2.422-0.659 0-1.257 0.263-1.693 0.69l-11.85 11.851-11.852-11.852c-0.438-0.439-1.044-0.71-1.713-0.71-1.337 0-2.422 1.084-2.422 2.422 0 0.669 0.271 1.274 0.709 1.712l11.852 11.852-11.879 11.88c-0.438 0.438-0.709 1.043-0.709 1.712 0 1.337 1.084 2.422 2.422 2.422 0.669 0 1.275-0.271 1.713-0.71l11.879-11.88 11.852 11.852c0.437 0.439 1.042 0.711 1.711 0.711 0.502 0 0.968-0.153 1.354-0.415l-0.008 0.005c0.653-0.441 1.076-1.178 1.076-2.013 0-0.669-0.271-1.274-0.709-1.712l-11.853-11.852z"></path>
</symbol>
</defs>
</svg>